# xmcd
#
# Track frame offsets:
#	150
#	15808
#	35299
#	53401
#	70636
#	90930
#	105960
#	123927
#	140154
#	155772
#
# Disc length: 2282
#
# Revision: 2
# Processed by: cddbd v1.5.1PL0 Copyright (c) Steve Scherf et al.
# Submitted via: audiograbber 1.83.01
# Normalized: r1:TDELIM( - ),TSWAP
#
DISCID=6a08e80a
DTITLE=Various Artist - Country Variety
DYEAR=2003
DGENRE=Genre
TTITLE0=Toby Keith - How Do You Like Me Know
TTITLE1=Brad Pasley [Featuring Allison Krauss] - Whiskey Lullaby
TTITLE2=Josh Turner - Long Black Train
TTITLE3=Alan Jackson [Featuring Jimmy Buffett] - It's Five O'Clock Somewhere
TTITLE4=Alan Jackson - Remember When
TTITLE5=Trace Adkins - Hot Mama
TTITLE6=George Strait - I Hate Everything
TTITLE7=Toby Keith - Stays in Mexico
TTITLE8=Lonestar - Mr. Mom
TTITLE9=Blake Shelton - Some Beach
EXTD=
EXTT0=
EXTT1=
EXTT2=
EXTT3=
EXTT4=
EXTT5=
EXTT6=
EXTT7=
EXTT8=
EXTT9=
PLAYORDER=
